<svg width="96" height="63" viewBox="0 0 96 63" fill="none" xmlns="http://www.w3.org/2000/svg">
<g clip-path="url(#clip0_230_9)">
<path d="M43.4879 37.0475L48.3346 28.3269C50.6838 24.9058 53.1977 21.2204 56.1672 18.3116C56.5294 17.9591 59.3342 15.5296 59.6032 15.7831C57.8028 18.6863 57.2046 22.1514 56.5624 25.4732C55.3932 31.5331 54.3668 38.0501 53.5929 44.176C52.9342 49.4095 51.7816 56.494 58.3353 58.378C69.3185 61.5401 85.3459 46.4787 80.7901 35.2571C79.9339 33.1472 78.0128 30.8279 75.7953 30.1338C75.0269 29.8969 72.8972 29.9079 72.9027 28.9439C72.9027 27.4454 75.8172 28.3214 76.6296 28.3214C77.6066 28.3214 78.9733 27.8366 79.4838 26.9496C79.9943 26.0627 79.7582 23.479 81.4763 25.1317C82.338 25.9635 82.069 27.17 81.4049 28.0294C80.4938 29.2028 78.9184 29.368 77.5462 29.5058C82.7661 32.6734 83.5565 39.1849 81.6793 44.6388C78.3257 54.384 65.1799 64.245 54.7455 59.8764C48.3401 57.1936 48.4443 51.4313 49.0975 45.421C49.866 38.3255 51.6114 31.1364 53.302 24.2282C48.4334 29.9244 45.5023 36.8822 41.8358 43.3332C41.007 44.7875 39.9915 46.644 39.031 47.9827C38.9047 48.159 38.8828 48.3738 38.5864 48.3077C38.8663 46.7817 39.2121 45.2503 39.4042 43.7078C40.3099 36.4305 39.278 28.6519 39.7006 21.336C39.772 20.1296 40.0684 18.8075 40.266 17.612C39.4481 18.7413 38.7895 20.091 38.1857 21.3636C32.8286 32.6954 29.0852 53.4971 18.3874 60.6201C11.0159 65.5286 -0.636957 62.8513 0.0271935 52.6047C0.323592 47.9882 4.81347 42.4572 9.51193 41.8513C9.66013 41.8347 10.1541 41.719 10.1267 41.978C4.89032 43.7684 1.06459 50.8859 4.07797 56.0147C6.82239 60.6918 12.9479 60.0472 16.9877 57.5296C26.9445 51.3101 31.2423 33.6815 35.5785 23.2587C37.4721 18.7028 40.6666 11.5742 45.914 10.2686C46.0951 10.2246 46.1829 9.99869 46.1555 10.3678C42.6701 15.1991 43.6032 21.3966 43.7788 26.9827C43.8886 30.3541 44.0094 33.7146 43.4934 37.0585L43.4879 37.0475Z" fill="#1A3DC1"/>
<path d="M95.6266 0.0165276C96.4005 1.81794 95.8681 3.93888 94.9514 5.60257C90.8348 13.0727 78.4959 12.4667 71.2561 12.0039C69.0166 19.8817 66.9418 27.8366 65.0262 35.808C64.3182 38.7497 63.4729 41.8402 62.8966 44.793C62.5288 46.6826 61.5573 50.8308 64.7243 50.7206C65.2842 50.7041 65.652 50.2964 66.1954 50.357C63.9175 52.6377 58.6043 52.5826 58.2091 48.6658C57.9017 45.6634 60.0533 38.2374 60.7998 34.9376C62.5508 27.1755 64.417 19.4244 66.3381 11.7065C62.6825 11.0895 59.0214 10.4835 55.4043 9.66265C47.5113 7.87776 34.6948 2.91422 27.0653 5.40425C18.0911 8.335 14.0074 21.0165 24.3209 24.9774L26.6043 25.5008C21.1319 28.7125 14.8197 23.9528 14.3422 18.1023C13.7165 10.5 20.0396 4.98006 26.8403 3.34391C35.4852 1.26154 46.1117 5.34365 54.6852 7.15058C63.2588 8.9575 72.3154 10.0097 80.8341 9.00708C86.6907 8.31847 93.4695 6.53358 95.3576 0.220358C95.418 0.0220365 95.2698 -0.0275437 95.6376 0.0165276H95.6266Z" fill="#1A3DC1"/>
<path d="M81.0645 30.8389C81.3224 28.6188 84.5444 28.2332 85.8123 29.9465C85.8617 30.1613 85.6367 30.2385 85.4994 30.3211C84.9506 30.6296 81.3608 31.2741 81.0699 30.8389H81.0645Z" fill="#1A3DC1"/>
</g>
<defs>
<clipPath id="clip0_230_9">
<rect width="96" height="63" fill="white"/>
</clipPath>
</defs>
</svg>
